HIERARCHY
ROOT Hips
{
  OFFSET 55.4452 86.7182 4.69361
  CHANNELS 6 Xposition Yposition Zposition Zrotation Xrotation Yrotation
  JOINT spine
  {
    OFFSET 0 6.84637 0.3937
    CHANNELS 3 Zrotation Xrotation Yrotation
    JOINT spine1
    {
      OFFSET 0 9.49621 0
      CHANNELS 3 Zrotation Xrotation Yrotation
      JOINT spine2
      {
        OFFSET 0 9.09909 0
        CHANNELS 3 Zrotation Xrotation Yrotation
        JOINT Neck
        {
          OFFSET 0 23.3612 1.11378
          CHANNELS 3 Zrotation Xrotation Yrotation
          JOINT Head
          {
            OFFSET 0 7.05802 0
            CHANNELS 3 Zrotation Xrotation Yrotation
            End Site
            {
              OFFSET 0 17.0844 -5.63419
            }
          }
        }
        JOINT RightShoulder
        {
          OFFSET -3.83136 9.82631 -0.533491
          CHANNELS 3 Zrotation Xrotation Yrotation
          JOINT RightArm
          {
            OFFSET 0 12.8881 0
            CHANNELS 3 Zrotation Xrotation Yrotation
            JOINT RightArmRoll
            {
              OFFSET 0 6.50617 0
              CHANNELS 3 Zrotation Xrotation Yrotation
              JOINT RightForeArm
              {
                OFFSET 0 18.9501 0
                CHANNELS 3 Zrotation Xrotation Yrotation
                JOINT RightForeArmRoll
                {
                  OFFSET 0 7.30092 0
                  CHANNELS 3 Zrotation Xrotation Yrotation
                  JOINT RightHand
                  {
                    OFFSET 0 14.6514 0
                    CHANNELS 3 Zrotation Xrotation Yrotation
                    End Site
                    {
                      OFFSET 0 0 0
                    }
                  }
                }
              }
            }
          }
        }
        JOINT LeftShoulder
        {
          OFFSET 3.83136 9.82631 -0.533491
          CHANNELS 3 Zrotation Xrotation Yrotation
          JOINT LeftArm
          {
            OFFSET 0 12.8881 0
            CHANNELS 3 Zrotation Xrotation Yrotation
            JOINT LeftArmRoll
            {
              OFFSET 0 6.50617 0
              CHANNELS 3 Zrotation Xrotation Yrotation
              JOINT LeftForeArm
              {
                OFFSET 0 18.9501 0
                CHANNELS 3 Zrotation Xrotation Yrotation
                JOINT LeftForeArmRoll
                {
                  OFFSET 0 7.30093 0
                  CHANNELS 3 Zrotation Xrotation Yrotation
                  JOINT LeftHand
                  {
                    OFFSET 0 14.6514 0
                    CHANNELS 3 Zrotation Xrotation Yrotation
                    End Site
                    {
                      OFFSET 0 0 0
                    }
                  }
                }
              }
            }
          }
        }
      }
    }
  }
  JOINT RightUpLeg
  {
    OFFSET -6.06837 -1.11278 -0.933477
    CHANNELS 3 Zrotation Xrotation Yrotation
    JOINT RightUpLegRoll
    {
      OFFSET 0 17.1796 0
      CHANNELS 3 Zrotation Xrotation Yrotation
      JOINT RightLeg
      {
        OFFSET 0 -21.2743 0
        CHANNELS 3 Zrotation Xrotation Yrotation
        JOINT RightLegRoll
        {
          OFFSET 0 21.3439 0
          CHANNELS 3 Zrotation Xrotation Yrotation
          JOINT RightFoot
          {
            OFFSET 0 17.7652 0
            CHANNELS 3 Zrotation Xrotation Yrotation
            JOINT RightToeBase
            {
              OFFSET 0 14.8508 0
              CHANNELS 3 Zrotation Xrotation Yrotation
              End Site
              {
                OFFSET 0.0062947 7.19214 -0.829005
              }
            }
          }
        }
      }
    }
  }
  JOINT LeftUpLeg
  {
    OFFSET 6.06837 -1.11278 -0.933477
    CHANNELS 3 Zrotation Xrotation Yrotation
    JOINT LeftUpLegRoll
    {
      OFFSET 0 17.1797 0
      CHANNELS 3 Zrotation Xrotation Yrotation
      JOINT LeftLeg
      {
        OFFSET 0 21.2742 0
        CHANNELS 3 Zrotation Xrotation Yrotation
        JOINT LeftLegRoll
        {
          OFFSET 0 21.5412 0
          CHANNELS 3 Zrotation Xrotation Yrotation
          JOINT LeftFoot
          {
            OFFSET 0 17.5679 0
            CHANNELS 3 Zrotation Xrotation Yrotation
            JOINT LeftToeBase
            {
              OFFSET 0 14.8508 0
              CHANNELS 3 Zrotation Xrotation Yrotation
              End Site
              {
                OFFSET -0.0282102 7.19214 -0.829005
              }
            }
          }
        }
      }
    }
  }
}
MOTION
Frames: 12
Frame Time: 0.00208333
53.3958 86.2299 4.26745 2.97541 1.76852 8.95704 2.05179 -0.80795 0.829013 4.11291 2.40933 1.41956 4.10002 4.05173 1.3517 -15.3384 1.31516 8.21044 3.70859 15.525 5.00446 39.0372 -4.93203 -1.5616 178.084 40.6158 -104.997 4.53374e-006 -9.33004e-006 -4.78096e-006 25.5697 54.3107 -8.57068 -3.93288e-006 -2.66444e-006 -3 8.02891 -4.95088 0.697235 -67.0115 -6.56208 4.39936 -117.17 52.6845 36.5592 3.193e-006 -7.37842e-007 1.11332e-006 -42.7039 10.9741 0.523339 7.74226e-006 3.87573e-006 2.99998 -8.0308 -4.95144 -0.697634 177.789 20.2008 0.088585 -180 7.01501e-015 178.739 174.09 25.9305 -178.744 1.59745e-006 7.66181e-007 0.771716 -27.269 70.6621 22.5479 8.13338 25.2328 -3.48641 -176.286 16.2983 -0.724095 4.54188e-006 -4.6773e-006 -0.68555 -2.51975 -20.5057 0.354579 7.77421e-007 -2.57607e-006 -0.00301491 14.0534 68.8313 -20.1077 -8.13649 25.2327 3.48774 
53.3976 86.2279 4.25723 2.96816 1.79757 9.01662 2.05987 -0.810861 0.824238 4.12885 2.40338 1.40919 4.1161 4.04577 1.34106 -15.3146 1.29393 8.27008 3.68349 15.5606 5.07311 39.0605 -4.93511 -1.56636 177.93 40.6773 -104.736 4.53374e-006 -9.33004e-006 -4.78096e-006 25.4905 54.3016 -8.54766 -3.93288e-006 -2.66444e-006 -3 8.02891 -4.95088 0.697235 -66.9738 -6.57373 4.40405 -117.056 52.5287 36.8798 3.193e-006 -7.37842e-007 1.11332e-006 -42.7826 11.3918 0.661363 7.74226e-006 3.87573e-006 2.99998 -8.0308 -4.95144 -0.697634 177.785 20.2256 0.0927745 -180 7.01501e-015 178.739 174.083 25.9293 -178.742 1.59745e-006 7.66181e-007 0.771314 -27.2757 70.6663 22.5534 8.13338 25.2328 -3.48641 -176.265 16.3385 -0.782684 4.54188e-006 -4.6773e-006 -0.686367 -2.57719 -20.5265 0.335624 7.77421e-007 -2.57607e-006 -0.00353981 14.1179 68.8502 -20.1235 -8.13649 25.2327 3.48774 
53.3906 86.2329 4.25447 2.96084 1.82658 9.07574 2.06793 -0.813678 0.819349 4.14472 2.39762 1.3986 4.13212 4.04 1.3302 -15.294 1.271 8.33055 3.66249 15.598 5.1419 39.0828 -4.93707 -1.57007 177.778 40.7352 -104.476 4.53374e-006 -9.33004e-006 -4.78096e-006 25.4149 54.2911 -8.52618 -3.93288e-006 -2.66444e-006 -3 8.02891 -4.95088 0.697235 -66.9373 -6.58566 4.40892 -116.939 52.368 37.2179 3.193e-006 -7.37842e-007 1.11332e-006 -42.8715 11.8223 0.803693 7.74226e-006 3.87573e-006 2.99998 -8.0308 -4.95144 -0.697634 177.781 20.2506 0.0965798 -180 7.01501e-015 178.739 174.077 25.9282 -178.739 1.59745e-006 7.66181e-007 0.770939 -27.2826 70.6708 22.5592 8.13338 25.2328 -3.48641 -176.244 16.3782 -0.841654 4.54188e-006 -4.6773e-006 -0.687151 -2.6347 -20.5465 0.316669 7.77421e-007 -2.57607e-006 -0.00403156 14.1813 68.8681 -20.1385 -8.13649 25.2327 3.48774 
53.3953 86.2317 4.24849 2.95345 1.85557 9.13454 2.07597 -0.816429 0.814381 4.16055 2.392 1.38785 4.1481 4.03436 1.31917 -15.2758 1.24686 8.3916 3.64432 15.6367 5.21079 39.1044 -4.93824 -1.57303 177.627 40.7903 -104.217 4.53374e-006 -9.33004e-006 -4.78096e-006 25.3417 54.2796 -8.50578 -3.93288e-006 -2.66444e-006 -3 8.02891 -4.95088 0.697235 -66.9015 -6.59777 4.41393 -116.818 52.2033 37.5673 3.193e-006 -7.37842e-007 1.11332e-006 -42.9683 12.2618 0.949233 7.74226e-006 3.87573e-006 2.99998 -8.0308 -4.95144 -0.697634 177.777 20.2758 0.100116 -180 7.01501e-015 178.739 174.071 25.927 -178.736 1.59745e-006 7.66181e-007 0.770583 -27.2897 70.6754 22.5652 8.13338 25.2328 -3.48641 -176.222 16.4177 -0.900897 4.54188e-006 -4.6773e-006 -0.687913 -2.69228 -20.5659 0.297714 7.77421e-007 -2.57607e-006 -0.00450011 14.244 68.8852 -20.1529 -8.13649 25.2327 3.48774 
53.3902 86.2347 4.2415 2.946 1.88452 9.19316 2.08399 -0.819141 0.809367 4.17636 2.38644 1.377 4.16406 4.02878 1.30805 -15.2588 1.22205 8.45297 3.62773 15.6761 5.27977 39.1257 -4.93897 -1.57558 177.477 40.8432 -103.957 4.53374e-006 -9.33004e-006 -4.78096e-006 25.2699 54.2676 -8.48601 -3.93288e-006 -2.66444e-006 -3 8.02891 -4.95088 0.697235 -66.8662 -6.61 4.41902 -116.694 52.0359 37.9221 3.193e-006 -7.37842e-007 1.11332e-006 -43.0706 12.7063 1.09687 7.74226e-006 3.87573e-006 2.99998 -8.0308 -4.95144 -0.697634 177.773 20.3012 0.1035 -180 7.01501e-015 178.739 174.065 25.926 -178.734 1.59745e-006 7.66181e-007 0.770239 -27.2968 70.6801 22.5714 8.13338 25.2328 -3.48641 -176.2 16.4571 -0.960306 4.54188e-006 -4.6773e-006 -0.688661 -2.7499 -20.585 0.278756 7.77421e-007 -2.57607e-006 -0.0049554 14.3064 68.902 -20.167 -8.13649 25.2327 3.48774 
53.3929 86.1949 4.23777 2.93849 1.91347 9.25173 2.09202 -0.821844 0.804342 4.19216 2.3809 1.36614 4.18001 4.02323 1.29692 -15.2421 1.19707 8.51443 3.61146 15.7157 5.34879 39.1468 -4.93958 -1.57802 177.326 40.8945 -103.698 4.53374e-006 -9.33004e-006 -4.78096e-006 25.1985 54.2554 -8.46639 -3.93288e-006 -2.66444e-006 -3 8.02891 -4.95088 0.697235 -66.831 -6.62225 4.42412 -116.567 51.8671 38.2762 3.193e-006 -7.37842e-007 1.11332e-006 -43.1762 13.1521 1.24549 7.74226e-006 3.87573e-006 2.99998 -8.0308 -4.95144 -0.697634 177.769 20.3265 0.106846 -180 7.01501e-015 178.739 174.058 25.9249 -178.731 1.59745e-006 7.66181e-007 0.769897 -27.304 70.6848 22.5775 8.13338 25.2328 -3.48641 -176.177 16.4963 -1.01977 4.54188e-006 -4.6773e-006 -0.689405 -2.80754 -20.604 0.259793 7.77421e-007 -2.57607e-006 -0.00540738 14.3686 68.9186 -20.181 -8.13649 25.2327 3.48774 
53.3881 86.2027 4.23044 2.93092 1.9424 9.31041 2.10005 -0.824566 0.79934 4.20797 2.37533 1.35532 4.19597 4.01764 1.28582 -15.2246 1.17244 8.57573 3.59424 15.7549 5.41781 39.1681 -4.94042 -1.58067 177.174 40.9449 -103.438 4.53374e-006 -9.33004e-006 -4.78096e-006 25.1264 54.2436 -8.44649 -3.93288e-006 -2.66444e-006 -3 8.02891 -4.95088 0.697235 -66.7956 -6.63444 4.42919 -116.438 51.6983 38.624 3.193e-006 -7.37842e-007 1.11332e-006 -43.2824 13.5951 1.39394 7.74226e-006 3.87573e-006 2.99998 -8.0308 -4.95144 -0.697634 177.765 20.3518 0.110271 -180 7.01501e-015 178.74 174.052 25.9238 -178.728 1.59745e-006 7.66181e-007 0.76955 -27.3111 70.6894 22.5836 8.13338 25.2328 -3.48641 -176.155 16.5357 -1.0792 4.54188e-006 -4.6773e-006 -0.690157 -2.86517 -20.6232 0.240825 7.77421e-007 -2.57607e-006 -0.00586599 14.4311 68.9354 -20.1952 -8.13649 25.2327 3.48774 
53.3943 86.2303 4.22837 2.92329 1.97134 9.36932 2.10809 -0.827336 0.794394 4.22381 2.36966 1.34461 4.21195 4.01196 1.27484 -15.2055 1.14867 8.63661 3.57484 15.7931 5.4868 39.1899 -4.94181 -1.58384 177.02 40.995 -103.176 4.53374e-006 -9.33004e-006 -4.78096e-006 25.0526 54.2323 -8.42583 -3.93288e-006 -2.66444e-006 -3 8.02891 -4.95088 0.697235 -66.7596 -6.6465 4.43416 -116.307 51.5308 38.9597 3.193e-006 -7.37842e-007 1.11332e-006 -43.3868 14.0315 1.54105 7.74226e-006 3.87573e-006 2.99998 -8.0308 -4.95144 -0.697634 177.761 20.3769 0.113889 -180 7.01501e-015 178.74 174.046 25.9226 -178.725 1.59745e-006 7.66181e-007 0.769189 -27.3181 70.694 22.5896 8.13338 25.2328 -3.48641 -176.133 16.5752 -1.13847 4.54188e-006 -4.6773e-006 -0.690925 -2.92279 -20.6427 0.221849 7.77421e-007 -2.57607e-006 -0.00634117 14.4941 68.9527 -20.2099 -8.13649 25.2327 3.48774 
53.3908 86.2181 4.219 2.91562 2.00029 9.4286 2.11615 -0.830181 0.789539 4.23968 2.36385 1.33408 4.22798 4.00613 1.26405 -15.1837 1.12629 8.69683 3.55201 15.8298 5.55572 39.2125 -4.94411 -1.58787 176.863 41.0453 -102.912 4.53374e-006 -9.33004e-006 -4.78096e-006 24.976 54.2222 -8.40396 -3.93288e-006 -2.66444e-006 -3 8.02891 -4.95088 0.697235 -66.7227 -6.65834 4.43898 -116.174 51.3662 39.2778 3.193e-006 -7.37842e-007 1.11332e-006 -43.4868 14.4574 1.68564 7.74226e-006 3.87573e-006 2.99998 -8.0308 -4.95144 -0.697634 177.756 20.4019 0.117817 -180 7.01501e-015 178.74 174.039 25.9215 -178.723 1.59745e-006 7.66181e-007 0.768806 -27.325 70.6983 22.5953 8.13338 25.2328 -3.48641 -176.111 16.615 -1.19748 4.54188e-006 -4.6773e-006 -0.691719 -2.98037 -20.663 0.202864 7.77421e-007 -2.57607e-006 -0.00684286 14.558 68.9709 -20.2253 -8.13649 25.2327 3.48774 
53.3989 86.2263 4.20661 2.90789 2.02926 9.4884 2.12423 -0.83313 0.784809 4.25562 2.35783 1.32381 4.24406 4.00009 1.2535 -15.1582 1.1058 8.75615 3.5245 15.8643 5.62453 39.2362 -4.94763 -1.59306 176.702 41.0965 -102.645 4.53374e-006 -9.33004e-006 -4.78096e-006 24.8955 54.2136 -8.38041 -3.93288e-006 -2.66444e-006 -3 8.02891 -4.95088 0.697235 -66.6846 -6.66988 4.44359 -116.041 51.2059 39.5729 3.193e-006 -7.37842e-007 1.11332e-006 -43.5795 14.869 1.82649 7.74226e-006 3.87573e-006 2.99998 -8.0308 -4.95144 -0.697634 177.752 20.4266 0.122172 -180 7.01501e-015 178.74 174.033 25.9202 -178.72 1.59745e-006 7.66181e-007 0.768392 -27.3317 70.7025 22.6008 8.13338 25.2328 -3.48641 -176.09 16.6552 -1.25612 4.54188e-006 -4.6773e-006 -0.692549 -3.0379 -20.684 0.183866 7.77421e-007 -2.57607e-006 -0.00738103 14.6231 68.9902 -20.2417 -8.13649 25.2327 3.48774 
53.3967 86.2247 4.20414 2.90013 2.05826 9.54885 2.13235 -0.836212 0.780237 4.27163 2.35155 1.31386 4.26021 3.9938 1.24327 -15.128 1.08772 8.81431 3.49106 15.8961 5.69319 39.2613 -4.95273 -1.59973 176.537 41.1491 -102.375 4.53374e-006 -9.33004e-006 -4.78096e-006 24.8101 54.2068 -8.35474 -3.93288e-006 -2.66444e-006 -3 8.02891 -4.95088 0.697235 -66.6449 -6.68103 4.44794 -115.909 51.0516 39.8397 3.193e-006 -7.37842e-007 1.11332e-006 -43.6623 15.2624 1.96237 7.74226e-006 3.87573e-006 2.99998 -8.0308 -4.95144 -0.697634 177.747 20.4509 0.127067 -180 7.01501e-015 178.74 174.026 25.9189 -178.717 1.59745e-006 7.66181e-007 0.767939 -27.3381 70.7063 22.6058 8.13338 25.2328 -3.48641 -176.069 16.6959 -1.3143 4.54188e-006 -4.6773e-006 -0.693426 -3.09535 -20.7063 0.164854 7.77421e-007 -2.57607e-006 -0.0079656 14.6898 69.0109 -20.2593 -8.13649 25.2327 3.48774 
53.3936 86.2323 4.21041 2.89232 2.0873 9.6101 2.1405 -0.839454 0.775859 4.28774 2.34496 1.30429 4.27645 3.98719 1.23342 -15.0923 1.07256 8.87107 3.45047 15.9246 5.76167 39.288 -4.95973 -1.60819 176.365 41.2036 -102.101 4.53374e-006 -9.33004e-006 -4.78096e-006 24.7188 54.2023 -8.32647 -3.93288e-006 -2.66444e-006 -3 8.02891 -4.95088 0.697235 -66.6033 -6.69172 4.45197 -115.778 50.9049 40.073 3.193e-006 -7.37842e-007 1.11332e-006 -43.7322 15.6337 2.09201 7.74226e-006 3.87573e-006 2.99998 -8.0308 -4.95144 -0.697634 177.741 20.4747 0.132621 -180 7.01501e-015 178.741 174.018 25.9174 -178.714 1.59745e-006 7.66181e-007 0.767439 -27.3441 70.7097 22.6104 8.13338 25.2328 -3.48641 -176.049 16.7373 -1.3719 4.54188e-006 -4.6773e-006 -0.694359 -3.1527 -20.7299 0.145826 7.77421e-007 -2.57607e-006 -0.00860652 14.7583 69.0333 -20.2784 -8.13649 25.2327 3.48774 
